<?xml version="1.0" encoding="UTF-8"?>
<svg width="15px" height="15px" viewBox="0 0 15 15" version="1.1" xmlns="http://www.w3.org/2000/svg" xmlns:xlink="http://www.w3.org/1999/xlink">
    <!-- Generator: Sketch 58 (84663) - https://sketch.com -->
    <title>108779</title>
    <desc>Created with Sketch.</desc>
    <g id="Admin" stroke="none" stroke-width="1" fill="none" fill-rule="evenodd">
        <g id="Report" transform="translate(-1257.000000, -106.000000)" fill="#FFFFFF" fill-rule="nonzero">
            <g id="108779" transform="translate(1257.000000, 106.000000)">
                <path d="M1.92307692,5.03538462 L0,5.03538462 L0,0 L5.03538462,0 L5.03538462,1.92307692 L1.92307692,1.92307692 L1.92307692,5.03538462 Z M13.0769231,13.0769231 L9.96461538,13.0769231 L9.96461538,15 L15,15 L15,9.96461538 L13.0769231,9.96461538 L13.0769231,13.0769231 Z M9.96461538,1.92307692 L13.0769231,1.92307692 L13.0769231,5.03538462 L15,5.03538462 L15,0 L9.96461538,0 L9.96461538,1.92307692 L9.96461538,1.92307692 Z M1.92307692,9.96461538 L0,9.96461538 L0,15 L5.03538462,15 L5.03538462,13.0769231 L1.92307692,13.0769231 L1.92307692,9.96461538 Z M11.0696923,6.53846154 L8.46153846,6.53846154 L8.46153846,3.93023077 L6.53846154,3.93023077 L6.53846154,6.53846154 L3.93030769,6.53846154 L3.93030769,8.46153846 L6.53846154,8.46153846 L6.53846154,11.0697692 L8.46153846,11.0697692 L8.46153846,8.46153846 L11.0696923,8.46153846 L11.0696923,6.53846154 Z" id="Shape"></path>
            </g>
        </g>
    </g>
</svg>