<?xml version="1.0" encoding="UTF-8"?>
<svg width="16px" height="16px" viewBox="0 0 16 16" version="1.1" xmlns="http://www.w3.org/2000/svg" xmlns:xlink="http://www.w3.org/1999/xlink">
    <!-- Generator: Sketch 58 (84663) - https://sketch.com -->
    <title>64508</title>
    <desc>Created with Sketch.</desc>
    <g id="Page-1" stroke="none" stroke-width="1" fill="none" fill-rule="evenodd">
        <g id="User-Management" transform="translate(-1264.000000, -105.000000)" fill="#FFFFFF" fill-rule="nonzero">
            <g id="64508" transform="translate(1264.000000, 105.000000)">
                <path d="M15.0128696,9.28034783 C14.4688696,8.73147826 13.749913,8.39721739 12.9867826,8.3266087 C13.6455652,7.73391304 14.0612174,6.87826087 14.0612174,5.92243478 C14.0612174,4.13426087 12.6121739,2.68521739 10.8236522,2.68521739 C9.11547826,2.68521739 7.71686957,4.00834783 7.59547826,5.68521739 C9.11513043,6.3426087 10.1815652,7.85704348 10.1815652,9.61530435 C10.1815652,10.2573913 10.0354783,10.8848696 9.76382609,11.4542609 C10.1551304,11.6587826 10.5158261,11.9231304 10.8302609,12.2403478 C11.6365217,13.0521739 12.0946087,14.1746087 12.085913,15.3189565 L12.0852174,15.3422609 L12.0845217,15.362087 L12.056,15.9036522 L15.933913,15.9036522 L15.965913,11.6149565 C15.9725217,10.7401739 15.629913,9.90121739 15.0128696,9.28034783 Z" id="Path"></path>
                <path d="M8.064,12.0201739 C8.72243478,11.4278261 9.13947826,10.5718261 9.13947826,9.616 C9.13947826,7.82747826 7.68973913,6.37808696 5.90156522,6.37808696 C4.11304348,6.37808696 2.66365217,7.82747826 2.66365217,9.616 C2.66365217,10.570087 3.07895652,11.4253913 3.73634783,12.018087 C2.05286957,12.1485217 0.723130435,13.5426087 0.710956522,15.2591304 L0.678956522,15.9036522 L5.60173913,15.9036522 L11.0114783,15.9036522 L11.0435625,15.3074783 C11.0497391,14.4330435 10.7067826,13.594087 10.090087,12.9732174 C9.5453913,12.424 8.82678261,12.0907826 8.064,12.0201739 Z" id="Path"></path>
                <path d="M2.08834783,3.95617391 L2.08834783,5.15895652 C2.08834783,5.65704348 2.49321739,6.06156522 2.99165217,6.06156522 C3.49078261,6.06156522 3.89495652,5.65704348 3.89495652,5.15895652 L3.89495652,3.95617391 L5.09634783,3.95617391 C5.59478261,3.95617391 5.99930435,3.55130435 5.99930435,3.05286957 C5.99930435,2.55478261 5.59478261,2.14991304 5.09634783,2.14991304 L3.89495652,2.14991304 L3.89495652,0.964869565 C3.89495652,0.466434783 3.49078261,0.0622608696 2.99165217,0.0622608696 C2.49321739,0.0622608696 2.08834783,0.466434783 2.08834783,0.964869565 L2.08834783,2.14956522 L0.902956522,2.14956522 C0.403826087,2.14956522 4.84057239e-14,2.55443478 4.84057239e-14,3.05252174 C4.84057239e-14,3.55095652 0.403826087,3.95582609 0.902956522,3.95582609 L2.08834783,3.95582609 L2.08834783,3.95617391 Z" id="Path"></path>
            </g>
        </g>
    </g>
</svg>