<?xml version="1.0" encoding="UTF-8"?>
<svg width="16px" height="10px" viewBox="0 0 16 10" version="1.1" xmlns="http://www.w3.org/2000/svg" xmlns:xlink="http://www.w3.org/1999/xlink">
    <!-- Generator: Sketch 58 (84663) - https://sketch.com -->
    <title>Company White</title>
    <desc>Created with Sketch.</desc>
    <g id="Company-White" stroke="none" stroke-width="1" fill="none" fill-rule="evenodd">
        <g id="45889" fill="#FFFFFF" fill-rule="nonzero">
            <path d="M15.1994221,1.07951331 L15.1994221,8.54558175 L15.9993612,8.54558175 L15.9993612,9.6121673 L0.00063878327,9.6121673 L0.00063878327,8.54561217 L0.800577947,8.54561217 L0.800577947,1.07951331 L0.00063878327,1.07951331 L0.00063878327,0.0129277567 L15.9993612,0.0129277567 L15.9993612,1.07951331 L15.1994221,1.07951331 Z M3.73368821,1.3461597 L3.20039544,1.3461597 C3.05311027,1.3461597 2.93374905,1.46555133 2.93374905,1.6128365 L2.93374905,8.01231939 C2.93374905,8.15960456 3.05311027,8.2789962 3.20039544,8.2789962 L3.73368821,8.2789962 C3.88097338,8.2789962 4.0003346,8.15960456 4.0003346,8.01231939 L4.0003346,1.61280608 C4.0003346,1.46555133 3.88094297,1.3461597 3.73368821,1.3461597 Z M8.26667681,1.3461597 L7.73335361,1.3461597 C7.58606844,1.3461597 7.46670722,1.46555133 7.46670722,1.6128365 L7.46670722,8.01231939 C7.46670722,8.15960456 7.58606844,8.2789962 7.73335361,8.2789962 L8.26667681,8.2789962 C8.41393156,8.2789962 8.53332319,8.15960456 8.53332319,8.01231939 L8.53332319,1.61280608 C8.53332319,1.46555133 8.41393156,1.3461597 8.26667681,1.3461597 Z M13.0662814,1.3461597 L12.5329886,1.3461597 C12.3857338,1.3461597 12.2663118,1.46555133 12.2663118,1.6128365 L12.2663118,8.01231939 C12.2663118,8.15960456 12.3857034,8.2789962 12.5329886,8.2789962 L13.0662814,8.2789962 C13.2135361,8.2789962 13.3329278,8.15960456 13.3329278,8.01231939 L13.3329278,1.61280608 C13.3329278,1.46555133 13.2135361,1.3461597 13.0662814,1.3461597 Z" id="Shape"></path>
        </g>
    </g>
</svg>