<?xml version="1.0" encoding="UTF-8"?>
<svg width="12px" height="12px" viewBox="0 0 12 12" version="1.1" xmlns="http://www.w3.org/2000/svg" xmlns:xlink="http://www.w3.org/1999/xlink">
    <!-- Generator: Sketch 58 (84663) - https://sketch.com -->
    <title>Path</title>
    <desc>Created with Sketch.</desc>
    <g id="Admin" stroke="none" stroke-width="1" fill="none" fill-rule="evenodd" opacity="0.400000006">
        <g id="Add-a-user" transform="translate(-1020.000000, -234.000000)" fill="#083255" fill-rule="nonzero">
            <path d="M1031.68094,245.488663 C1031.25553,245.914074 1030.56594,245.914074 1030.14053,245.488663 L1026.09614,241.44427 L1021.85947,245.680942 C1021.43406,246.106353 1020.74447,246.106353 1020.31906,245.680942 C1019.89365,245.255532 1019.89365,244.565943 1020.31906,244.140532 L1024.55573,239.903861 L1020.51134,235.859468 C1020.08593,235.434057 1020.08593,234.743923 1020.51134,234.319058 C1020.93675,233.893647 1021.62634,233.893647 1022.05175,234.319058 L1026.09614,238.363451 L1029.94771,234.511881 C1030.37312,234.086471 1031.06271,234.086471 1031.48812,234.511881 C1031.91353,234.937291 1031.91353,235.626881 1031.48812,236.052291 L1027.63655,239.903861 L1031.68094,243.948254 C1032.10635,244.373664 1032.10635,245.063253 1031.68094,245.488663 Z" id="Path"></path>
        </g>
    </g>
</svg>