<?xml version="1.0" encoding="UTF-8"?>
<svg width="14px" height="16px" viewBox="0 0 14 16" version="1.1" xmlns="http://www.w3.org/2000/svg" xmlns:xlink="http://www.w3.org/1999/xlink">
    <!-- Generator: Sketch 58 (84663) - https://sketch.com -->
    <title>25214 copy 2</title>
    <desc>Created with Sketch.</desc>
    <g id="Admin" stroke="none" stroke-width="1" fill="none" fill-rule="evenodd" opacity="0.5">
        <g id="User-Management" transform="translate(-1335.000000, -275.000000)" fill="#003057" fill-rule="nonzero">
            <g id="25214-copy-2" transform="translate(1335.000000, 275.000000)">
                <path d="M13.8849777,2.62817866 C13.8255385,2.56880893 13.7494591,2.53896774 13.6569826,2.53896774 L10.592129,2.53896774 L9.89786104,0.882729529 C9.79871464,0.638024814 9.62015385,0.429727047 9.36242184,0.257801489 C9.10444665,0.08591067 8.84313648,0 8.57873449,0 L5.40483375,0 C5.14043176,0 4.87919107,0.08591067 4.6213201,0.257801489 C4.36341439,0.429727047 4.18488834,0.637990074 4.08567246,0.882729529 L3.39140447,2.53896774 L0.326689826,2.53896774 C0.234039702,2.53896774 0.158099256,2.56880893 0.0985558313,2.62817866 C0.0391861042,2.68768734 0.00934491315,2.76376675 0.00934491315,2.85631266 L0.00934491315,3.49114144 C0.00934491315,3.58368734 0.0390471464,3.65976675 0.0985558313,3.71917122 C0.158099256,3.77864516 0.23417866,3.80838213 0.326689826,3.80838213 L1.27875931,3.80838213 L1.27875931,13.2505658 C1.27875931,13.7995533 1.43414888,14.2672506 1.7448933,14.6539702 C2.0557072,15.040933 2.42929529,15.2342233 2.86572705,15.2342233 L11.1178065,15.2342233 C11.5543424,15.2342233 11.9278958,15.034263 12.2386749,14.6343424 C12.5494194,14.2341439 12.7047047,13.7598114 12.7047047,13.2110323 L12.7047047,3.80838213 L13.6569479,3.80838213 C13.7494243,3.80838213 13.8255385,3.77864516 13.8849429,3.71917122 C13.9442779,3.65980149 13.9742234,3.58368734 13.9742234,3.49114144 L13.9742234,2.85631266 C13.9742234,2.76376675 13.9443127,2.68768734 13.8849777,2.62817866 Z M5.25611414,1.37839206 C5.30235236,1.31891811 5.35859553,1.28244169 5.42470471,1.26931017 L8.56876427,1.26931017 C8.63487345,1.28254591 8.69122084,1.31898759 8.73738958,1.37839206 L9.21363275,2.53882878 L4.77010918,2.53882878 L5.25611414,1.37839206 Z M11.4352903,13.2111017 C11.4352903,13.3565211 11.4122233,13.4904764 11.3658462,13.6127246 C11.3195037,13.734938 11.2714591,13.8242184 11.2219901,13.8804268 C11.1722779,13.9367742 11.1378164,13.9647395 11.1178412,13.9647395 L2.86576179,13.9647395 C2.84592556,13.9647395 2.81139454,13.9367742 2.76168238,13.8804268 C2.7120397,13.8242184 2.66406452,13.734938 2.61775682,13.6127246 C2.57151861,13.4904764 2.54838213,13.3563821 2.54838213,13.2111017 L2.54838213,3.80838213 L11.4352903,3.80838213 L11.4352903,13.2111017 L11.4352903,13.2111017 Z" id="Shape"></path>
                <path d="M4.13538462,12.0605658 L4.77010918,12.0605658 C4.86275931,12.0605658 4.93887345,12.0308635 4.99824318,11.9713896 C5.0576129,11.9117072 5.08745409,11.835871 5.08745409,11.7431514 L5.08745409,6.03010918 C5.08745409,5.93759801 5.0576129,5.86151861 4.99824318,5.80197519 C4.93869975,5.74260546 4.86279404,5.71286849 4.77010918,5.71286849 L4.13538462,5.71286849 C4.04273449,5.71286849 3.96675931,5.74257072 3.90725062,5.80197519 C3.84781141,5.86151861 3.8180397,5.93759801 3.8180397,6.03010918 L3.8180397,11.7431514 C3.8180397,11.835871 3.8477072,11.9117419 3.90725062,11.9713896 C3.96675931,12.0308288 4.04273449,12.0605658 4.13538462,12.0605658 Z" id="Path"></path>
                <path d="M6.67445658,12.0605658 L7.30918114,12.0605658 C7.40179653,12.0605658 7.47787593,12.0308635 7.53721092,11.9713896 C7.5968933,11.9117072 7.62645658,11.835871 7.62645658,11.7431514 L7.62645658,6.03010918 C7.62645658,5.93759801 7.59685856,5.86151861 7.53721092,5.80197519 C7.47787593,5.74260546 7.40179653,5.71286849 7.30918114,5.71286849 L6.67445658,5.71286849 C6.58191067,5.71286849 6.50583127,5.74257072 6.44632258,5.80197519 C6.38677916,5.86151861 6.35711166,5.93759801 6.35711166,6.03010918 L6.35711166,11.7431514 C6.35711166,11.835871 6.38677916,11.9117419 6.44632258,11.9713896 C6.50579653,12.0308288 6.58191067,12.0605658 6.67445658,12.0605658 Z" id="Path"></path>
                <path d="M9.21359801,12.0605658 L9.84821836,12.0605658 C9.94093797,12.0605658 10.0170174,12.0308635 10.0764566,11.9713896 C10.1358958,11.9117072 10.1654591,11.835871 10.1654591,11.7431514 L10.1654591,6.03010918 C10.1654591,5.93759801 10.135861,5.86151861 10.0764566,5.80197519 C10.0170174,5.74260546 9.94093797,5.71286849 9.84821836,5.71286849 L9.21359801,5.71286849 C9.12084367,5.71286849 9.04500744,5.74257072 8.98532506,5.80197519 C8.92588586,5.86151861 8.89618362,5.93759801 8.89618362,6.03010918 L8.89618362,11.7431514 C8.89618362,11.835871 8.92588586,11.9117419 8.98532506,11.9713896 C9.04500744,12.0308288 9.12084367,12.0605658 9.21359801,12.0605658 Z" id="Path"></path>
            </g>
        </g>
    </g>
</svg>