<?xml version="1.0" encoding="UTF-8"?>
<svg width="17px" height="17px" viewBox="0 0 17 17" version="1.1" xmlns="http://www.w3.org/2000/svg" xmlns:xlink="http://www.w3.org/1999/xlink">
    <!-- Generator: Sketch 58 (84663) - https://sketch.com -->
    <title>126483 copy 2</title>
    <desc>Created with Sketch.</desc>
    <g id="Admin" stroke="none" stroke-width="1" fill="none" fill-rule="evenodd" opacity="0.5">
        <g id="User-Management" transform="translate(-1298.000000, -274.000000)" fill="#003057" fill-rule="nonzero" stroke="#003057" stroke-width="0.5">
            <g id="126483-copy-2" transform="translate(1299.000000, 275.000000)">
                <path d="M14.0084362,0.970308511 C12.7190745,-0.322244681 10.622266,-0.322244681 9.33290426,0.970308511 L0.76056383,9.53945745 C0.693542553,9.60647872 0.652053191,9.69264894 0.639287234,9.78520213 L0.00418085106,14.4894574 C-0.0149680851,14.6235 0.0329042553,14.7575426 0.125457447,14.8500957 C0.205244681,14.929883 0.316946809,14.9777553 0.428648936,14.9777553 C0.447797872,14.9777553 0.466946809,14.9777553 0.486095745,14.9745638 L3.3201383,14.5915851 C3.55630851,14.5596702 3.72226596,14.3426489 3.69035106,14.1064787 C3.65843617,13.8703085 3.44141489,13.7043511 3.20524468,13.736266 L0.932904255,14.0426489 L1.37652128,10.7617979 L4.82971277,14.2149894 C4.9095,14.2947766 5.02120213,14.3426489 5.13290426,14.3426489 C5.24460638,14.3426489 5.35630851,14.2979681 5.43609574,14.2149894 L14.0084362,5.64584043 C14.6339681,5.02030851 14.9786489,4.19052128 14.9786489,3.30647872 C14.9786489,2.42243617 14.6339681,1.59264894 14.0084362,0.970308511 Z M9.4988617,2.0235 L10.9382234,3.4628617 L3.11588298,11.2852021 L1.67652128,9.84584043 L9.4988617,2.0235 Z M5.13609574,13.3022234 L3.72864894,11.8947766 L11.5509894,4.07243617 L12.9584362,5.47988298 L5.13609574,13.3022234 Z M13.5584362,4.86392553 L10.1148191,1.42030851 C10.5520532,1.05967021 11.0977979,0.861797872 11.672266,0.861797872 C12.3265213,0.861797872 12.9392872,1.11711702 13.4020532,1.57669149 C13.8648191,2.03626596 14.1169468,2.6522234 14.1169468,3.30647872 C14.1169468,3.8841383 13.9190745,4.42669149 13.5584362,4.86392553 Z" id="Shape"></path>
            </g>
        </g>
    </g>
</svg>