<?xml version="1.0" encoding="UTF-8"?>
<svg width="194px" height="18px" viewBox="0 0 194 18" version="1.1" xmlns="http://www.w3.org/2000/svg" xmlns:xlink="http://www.w3.org/1999/xlink">
    <!-- Generator: Sketch 55.2 (78181) - https://sketchapp.com -->
    <title>Fill 2</title>
    <desc>Created with Sketch.</desc>
    <g id="Admin" stroke="none" stroke-width="1" fill="none" fill-rule="evenodd">
        <g id="Login" transform="translate(-914.000000, -228.000000)" fill="#083255">
            <path d="M1005.65188,228.872757 C1004.87929,229.454055 1004.27192,230.581838 1003.82976,232.256106 L1001.32366,241.744704 C1000.8807,243.418972 1000.89267,244.546755 1001.35798,245.128863 C1001.82408,245.710161 1002.90394,246 1004.60075,246 L1016.84314,246 C1018.53915,246 1019.77465,245.710161 1020.54643,245.128863 C1021.31901,244.546755 1021.92718,243.418972 1022.36934,241.744704 L1023.32629,238.120901 L1023.35502,238.120901 L1023.81155,236.281473 L1024.00869,235.535825 L1023.99751,235.535825 L1024.11803,235.05087 L1010.46136,235.05087 C1010.90911,236.746188 1012.62667,238.120901 1014.29873,238.120901 L1019.30136,238.120901 L1019.17446,238.605047 L1018.11535,242.616651 L1005.21929,242.616651 L1008.233,231.210093 L1021.98784,231.210093 C1023.73573,231.210093 1025.5315,229.77304 1026,228 L1009.35516,228 C1007.65836,228 1006.42446,228.291459 1005.65188,228.872757 L1005.65188,228.872757 Z M919.482115,228.872757 C918.704687,229.454055 918.094939,230.581838 917.649662,232.256106 L917.121749,234.244501 C916.677275,235.918769 916.688507,237.047362 917.156248,237.62866 C917.624791,238.209958 918.710303,238.500607 920.415993,238.500607 L931.547904,238.500607 L930.454369,242.616651 L918.009895,242.616651 C916.291369,242.616651 914.525506,244.022939 914.065789,245.756308 L914,246 L928.760714,246 C930.466404,246 931.712375,245.710161 932.501036,245.128863 C933.288895,244.546755 933.905863,243.418972 934.350338,241.744704 L935.008224,239.268115 C935.452698,237.593037 935.434245,236.466064 934.953667,235.883956 C934.47309,235.302658 933.37795,235.012009 931.669051,235.012009 L920.513071,235.012009 L921.540817,231.140467 L934.055091,231.140467 C935.773618,231.140467 937.53948,229.734179 938,228 L923.204787,228 C921.499097,228 920.257939,228.291459 919.482115,228.872757 L919.482115,228.872757 Z M1089.77257,228 L1085,246 L1092.72969,246 L1092.72969,245.993523 L1104.24331,245.993523 C1103.74899,244.130617 1101.85422,242.620699 1100.01153,242.620699 L1092.72969,242.620699 L1092.72969,242.616651 L1090.03936,242.616651 L1091.22429,238.151666 L1096.40226,238.151666 C1098.07991,238.151666 1099.80403,236.776953 1100.25348,235.081635 L1092.03748,235.081635 L1093.10144,231.070031 L1104.14797,231.070031 C1105.82562,231.070031 1107.55054,229.696127 1108,228 L1089.77257,228 Z M1075.72697,231.208867 C1075.51473,231.069622 1075.09259,231 1074.46057,231 L1065.31592,231 L1064,236 L1073.14465,236 C1073.77588,236 1074.23496,235.930378 1074.5211,235.791133 C1074.91415,235.583867 1075.19007,235.178137 1075.34807,234.576344 L1075.91485,232.423656 C1076.07364,231.822663 1076.00997,231.416933 1075.72697,231.208867 L1075.72697,231.208867 Z M1079.82095,231.489408 L1078.6681,235.709891 C1078.03221,238.035893 1076.33762,239.198489 1073.58679,239.198489 L1071.16712,239.198489 L1077.77703,246 L1074.49355,246 C1072.67095,246 1071.10188,245.31993 1070.10676,244.098232 L1066.11389,239.198489 L1062.05743,239.198489 L1060.1985,246 L1056,246 L1060.91945,228 L1076.6473,228 C1079.39896,228 1080.45684,229.163406 1079.82095,231.489408 L1079.82095,231.489408 Z M1030,246 L1037.6242,246 L1037.6242,245.993523 L1049.23196,245.993523 C1048.73843,244.130617 1046.84359,242.620699 1045.00003,242.620699 L1037.6242,242.620699 L1037.6242,242.616651 L1035.03954,242.616651 L1036.22371,238.151666 L1041.40105,238.151666 C1043.07956,238.151666 1044.80454,236.776953 1045.25401,235.081635 L1037.03773,235.081635 L1038.10092,231.070031 L1049.14784,231.070031 C1050.82555,231.070031 1052.55053,229.696127 1053,228 L1034.77274,228 L1030,246 Z M990.726562,231.208867 C990.515096,231.069622 990.092163,231 989.460908,231 L980.315966,231 L979,236 L988.144942,236 C988.776197,236 989.235291,235.930378 989.520653,235.791133 C989.9145,235.583867 990.190428,235.178137 990.348438,234.576344 L990.915231,232.423656 C991.073241,231.822663 991.010352,231.416933 990.726562,231.208867 L990.726562,231.208867 Z M995.821024,231.489408 L994.667341,235.709891 C994.032279,238.035893 992.337679,239.198489 989.586019,239.198489 L987.167167,239.198489 L993.776272,246 L990.496082,246 C988.671826,246 987.1011,245.31912 986.105151,244.095804 L982.113922,239.198489 L978.057452,239.198489 L976.198512,246 L972,246 L976.919461,228 L992.647365,228 C995.3982,228 996.456912,229.163406 995.821024,231.489408 L995.821024,231.489408 Z M967,228 L963.365194,241.744704 C962.922432,243.418972 962.313434,244.546755 961.540598,245.128863 C960.766963,245.710161 959.530585,246 957.831465,246 L946.605764,246 C944.906644,246 943.824514,245.710161 943.358575,245.128863 C942.892636,244.546755 942.880648,243.418972 943.32341,241.744704 L946.959015,228 C949.241558,228 950.59542,229.875051 949.984024,232.18648 L947.225152,242.616651 L959.002308,242.616651 L961.76118,232.18648 C962.372575,229.875051 964.718256,228 967,228 L967,228 Z" id="Fill-2"></path>
        </g>
    </g>
</svg>