<?xml version="1.0" encoding="UTF-8"?>
<svg width="532px" height="435px" viewBox="0 0 532 435" version="1.1" xmlns="http://www.w3.org/2000/svg" xmlns:xlink="http://www.w3.org/1999/xlink">
    <!-- Generator: Sketch 58 (84663) - https://sketch.com -->
    <title>Group</title>
    <desc>Created with Sketch.</desc>
    <defs>
        <polygon id="path-1" points="0 0 434 0 434 425 0 425"></polygon>
        <linearGradient x1="49.9914738%" y1="35.8991495%" x2="50.0318854%" y2="102.733428%" id="linearGradient-3">
            <stop stop-color="#FFFFFF" offset="0%"></stop>
            <stop stop-color="#FFFFFF" offset="100%"></stop>
        </linearGradient>
        <polygon id="path-4" points="7.51861182e-15 72 532 72 532 74 7.51861182e-15 74"></polygon>
        <linearGradient x1="-303.087364%" y1="49.9998007%" x2="1370.44612%" y2="50.0007453%" id="linearGradient-6">
            <stop stop-color="#FFFFFF" offset="0%"></stop>
            <stop stop-color="#FFFFFF" offset="100%"></stop>
        </linearGradient>
        <polygon id="path-7" points="7.51861182e-15 117 532 117 532 119 7.51861182e-15 119"></polygon>
        <polygon id="path-9" points="7.51861182e-15 162 532 162 532 164 7.51861182e-15 164"></polygon>
        <polygon id="path-11" points="7.51861182e-15 207 532 207 532 209 7.51861182e-15 209"></polygon>
        <polygon id="path-13" points="7.51861182e-15 252 532 252 532 254 7.51861182e-15 254"></polygon>
        <polygon id="path-15" points="7.51861182e-15 297 532 297 532 299 7.51861182e-15 299"></polygon>
        <polygon id="path-17" points="7.51861182e-15 342 532 342 532 344 7.51861182e-15 344"></polygon>
        <polygon id="path-19" points="7.51861182e-15 387 532 387 532 389 7.51861182e-15 389"></polygon>
    </defs>
    <g id="Page-1" stroke="none" stroke-width="1" fill="none" fill-rule="evenodd">
        <g id="No-record-found" transform="translate(-583.000000, -380.000000)">
            <g id="Group" transform="translate(583.000000, 380.000000)">
                <g id="Group-3" opacity="0.300000012" transform="translate(92.000000, 0.000000)">
                    <mask id="mask-2" fill="white">
                        <use xlink:href="#path-1"></use>
                    </mask>
                    <g id="Clip-2"></g>
                    <path d="M432.086611,133.001122 C415.798612,34.7861585 301.364101,-16.8994925 203.82587,4.96890654 C95.6503067,29.2224877 41.8061469,136.42661 32.9416522,154.916878 C2.10289329,219.242199 -24.3556239,336.242096 37.5500379,394.918936 C106.352026,460.131968 233.548673,405.198186 295.219071,362.870954 C311.385723,351.774874 451.920902,252.6007 432.086611,133.001122" id="Fill-1" fill="#D6ECFF" mask="url(#mask-2)"></path>
                </g>
                <polygon id="Fill-2" fill="url(#linearGradient-3)" points="58 28 60 28 60 435 58 435"></polygon>
                <polygon id="Fill-4" fill="url(#linearGradient-3)" points="117 435 119 435 119 28 117 28"></polygon>
                <polygon id="Fill-6" fill="url(#linearGradient-3)" points="176 435 178 435 178 28 176 28"></polygon>
                <polygon id="Fill-8" fill="url(#linearGradient-3)" points="234 435 236 435 236 28 234 28"></polygon>
                <polygon id="Fill-10" fill="url(#linearGradient-3)" points="293 435 295 435 295 28 293 28"></polygon>
                <polygon id="Fill-12" fill="url(#linearGradient-3)" points="352 435 354 435 354 28 352 28"></polygon>
                <polygon id="Fill-14" fill="url(#linearGradient-3)" points="411 435 413 435 413 28 411 28"></polygon>
                <polygon id="Fill-16" fill="url(#linearGradient-3)" points="470 435 472 435 472 28 470 28"></polygon>
                <mask id="mask-5" fill="white">
                    <use xlink:href="#path-4"></use>
                </mask>
                <g id="Clip-19"></g>
                <polygon id="Fill-18" fill="url(#linearGradient-6)" points="0 74 532 74 532 72 0 72"></polygon>
                <mask id="mask-8" fill="white">
                    <use xlink:href="#path-7"></use>
                </mask>
                <g id="Clip-22"></g>
                <polygon id="Fill-21" fill="url(#linearGradient-6)" points="0 119 532 119 532 117 0 117"></polygon>
                <mask id="mask-10" fill="white">
                    <use xlink:href="#path-9"></use>
                </mask>
                <g id="Clip-25"></g>
                <polygon id="Fill-24" fill="url(#linearGradient-6)" points="0 164 532 164 532 162 0 162"></polygon>
                <mask id="mask-12" fill="white">
                    <use xlink:href="#path-11"></use>
                </mask>
                <g id="Clip-28"></g>
                <polygon id="Fill-27" fill="url(#linearGradient-6)" points="0 209 532 209 532 207 0 207"></polygon>
                <mask id="mask-14" fill="white">
                    <use xlink:href="#path-13"></use>
                </mask>
                <g id="Clip-31"></g>
                <polygon id="Fill-30" fill="url(#linearGradient-6)" points="0 254 532 254 532 252 0 252"></polygon>
                <mask id="mask-16" fill="white">
                    <use xlink:href="#path-15"></use>
                </mask>
                <g id="Clip-34"></g>
                <polygon id="Fill-33" fill="url(#linearGradient-6)" points="0 299 532 299 532 297 0 297"></polygon>
                <mask id="mask-18" fill="white">
                    <use xlink:href="#path-17"></use>
                </mask>
                <g id="Clip-37"></g>
                <polygon id="Fill-36" fill="url(#linearGradient-6)" points="0 344 532 344 532 342 0 342"></polygon>
                <mask id="mask-20" fill="white">
                    <use xlink:href="#path-19"></use>
                </mask>
                <g id="Clip-40"></g>
                <polygon id="Fill-39" fill="url(#linearGradient-6)" points="0 389 532 389 532 387 0 387"></polygon>
                <path d="M287.111785,245 L57.8882152,245 C51.3229392,245 46,239.67062 46,233.097401 L46,88.9025991 C46,82.3293796 51.3229392,77 57.8882152,77 L287.111785,77 C293.677061,77 299,82.3293796 299,88.9025991 L299,233.097401 C299,239.67062 293.677061,245 287.111785,245" id="Fill-42" fill="#C2E0FF"></path>
                <path d="M285.839265,242 L59.1607351,242 C54.1017505,242 50,237.914847 50,232.875682 L50,90.124846 C50,85.085681 54.1017505,81 59.1607351,81 L285.839265,81 C290.898779,81 295,85.085681 295,90.124846 L295,232.875682 C295,237.914847 290.898779,242 285.839265,242" id="Fill-44" fill="#FFFFFF"></path>
                <polygon id="Fill-46" fill="#EEFAFF" points="83 240 84 240 84 83 83 83"></polygon>
                <polygon id="Fill-48" fill="#EEFAFF" points="118 240 119 240 119 83 118 83"></polygon>
                <polygon id="Fill-49" fill="#EEFAFF" points="154 240 155 240 155 83 154 83"></polygon>
                <polygon id="Fill-50" fill="#EEFAFF" points="189 240 190 240 190 83 189 83"></polygon>
                <polygon id="Fill-51" fill="#EEFAFF" points="225 240 226 240 226 83 225 83"></polygon>
                <polygon id="Fill-52" fill="#EEFAFF" points="260 240 261 240 261 83 260 83"></polygon>
                <polygon id="Fill-53" fill="#EEFAFF" points="58 99 287 99 287 98 58 98"></polygon>
                <polygon id="Fill-54" fill="#EEFAFF" points="58 115 287 115 287 114 58 114"></polygon>
                <polygon id="Fill-55" fill="#EEFAFF" points="58 131 287 131 287 130 58 130"></polygon>
                <polygon id="Fill-56" fill="#EEFAFF" points="58 146 287 146 287 145 58 145"></polygon>
                <polygon id="Fill-57" fill="#EEFAFF" points="58 162 287 162 287 161 58 161"></polygon>
                <polygon id="Fill-58" fill="#EEFAFF" points="58 178 287 178 287 177 58 177"></polygon>
                <polygon id="Fill-59" fill="#EEFAFF" points="58 194 287 194 287 193 58 193"></polygon>
                <polygon id="Fill-60" fill="#EEFAFF" points="58 210 287 210 287 209 58 209"></polygon>
                <polygon id="Fill-61" fill="#EEFAFF" points="58 225 287 225 287 224 58 224"></polygon>
                <path d="M63.0593414,234 C62.9147248,234 62.7674596,233.970386 62.6270809,233.907458 C62.0931122,233.668962 61.8536738,233.042846 62.0925825,232.510331 L98.1439489,152.103611 C98.3065762,151.741374 98.6583176,151.500234 99.0556157,151.479611 C99.450795,151.457401 99.8279634,151.661523 100.027672,152.004723 L118.072425,183.047171 L154.168819,106.606558 C154.342571,106.237974 154.713912,106.002123 155.122335,106 C155.546119,105.998422 155.903158,106.230571 156.081148,106.597568 L188.644766,173.890225 L206.579335,143.672199 C206.772157,143.346978 207.139261,143.160307 207.503716,143.153961 C207.882473,143.15872 208.229977,143.364958 208.415382,143.694938 L242.877026,205.166409 L258.817159,174.974823 C258.993559,174.640613 259.335766,174.425385 259.715053,174.411107 C260.099108,174.395772 260.450849,174.586145 260.652147,174.906606 L287.838467,218.252444 C288.148889,218.747414 288,219.39997 287.502617,219.710384 C287.006789,220.020269 286.353101,219.869557 286.042149,219.375116 L259.833183,177.587165 L243.842196,207.874995 C243.661558,208.218195 243.306638,208.43448 242.918345,208.439768 C242.518928,208.453518 242.170365,208.236704 241.980722,207.898263 L207.464516,146.330547 L189.461611,176.664384 C189.262432,176.999652 188.896918,177.199015 188.504917,177.182093 C188.115035,177.165171 187.765942,176.936195 187.595898,176.585591 L155.138756,109.51292 L119.127649,185.773208 C118.959725,186.128571 118.607983,186.361778 118.214923,186.3787 C117.825041,186.398795 117.451051,186.193086 117.252932,185.853059 L99.2330756,154.852387 L64.0271597,233.373884 C63.8507593,233.767322 63.4640558,234 63.0593414,234" id="Fill-62" fill="#CEE5F2"></path>
                <path d="M179.399564,233 C175.360722,233 171.544264,232.1233 167.981885,230.369371 C156.368233,224.653644 150.903171,211.293345 149.092401,205.814365 C146.321309,197.428904 140.847267,188.753323 134.864013,188.276132 C129.914503,187.88085 124.511244,193.042232 119.241627,203.20276 C110.785202,219.50706 97.138923,226.172413 87.1802134,228.89235 C76.4339139,231.827367 67.7772899,230.936399 67.4143963,230.897293 C66.5444024,230.802701 65.9152811,230.020593 66.009306,229.150234 C66.1038591,228.280404 66.8792999,227.65049 67.754576,227.744554 C67.8385645,227.753538 76.2696345,228.608043 86.4560109,225.803554 C99.9977006,222.074275 110.081601,213.978933 116.428277,201.74265 C122.416286,190.196523 128.706442,184.600226 135.116506,185.115466 C145.355177,185.93298 151.06164,201.672366 152.101724,204.818763 C153.786776,209.918316 158.844044,222.3385 169.381165,227.524719 C175.287298,230.431728 182.061313,230.580751 189.513045,227.968089 C208.072386,221.460743 214.633524,190.359286 219.424565,167.650159 C220.465705,162.716541 221.44874,158.056659 222.443396,154.233844 C225.874246,141.053219 231.025012,132.206948 239.143898,125.548994 C249.354573,117.176744 264.143941,112.745154 284.357168,112 C285.235614,111.968859 285.966683,112.652675 286,113.527261 C286.031127,114.402376 285.348127,115.137451 284.473379,115.169687 C241.360349,116.756097 230.655779,135.266151 225.510825,155.032334 C224.534128,158.783808 223.558489,163.408811 222.5258,168.30491 C217.578931,191.751226 210.804917,223.862553 190.561581,230.960179 C186.68332,232.320412 182.954548,233 179.399564,233" id="Fill-63" fill="#1153C1"></path>
                <path d="M478,397.5 C478,401.641906 408.604005,405 322.999735,405 C237.395995,405 168,401.641906 168,397.5 C168,393.357582 237.395995,390 322.999735,390 C408.604005,390 478,393.357582 478,397.5" id="Fill-64" fill="#083255"></path>
                <polygon id="Fill-65" fill="#895F47" points="362 399 369 399 369 290 362 290"></polygon>
                <polygon id="Fill-66" fill="#895F47" points="391 399 398 399 398 290 391 290"></polygon>
                <polygon id="Fill-67" fill="#9E7154" points="186 290 405 290 405 281 186 281"></polygon>
                <polygon id="Fill-68" fill="#B58165" points="186 290 235 290 235 281 186 281"></polygon>
                <polygon id="Fill-69" fill="#9E7154" points="192 399 199 399 199 290 192 290"></polygon>
                <polygon id="Fill-70" fill="#9E7154" points="221 399 228 399 228 290 221 290"></polygon>
                <polygon id="Fill-71" fill="#0C66BF" points="418.976841 231 396.159324 268.726942 359 274.580287 359 281 404.459235 281 426.489342 249.497308 429 233.208044"></polygon>
                <polygon id="Fill-72" fill="#E1B6BC" points="361 275.948211 353.350613 272 339 274.872505 339.725688 276.499484 350.258228 277.407433 353.464498 281 361 280.175671"></polygon>
                <polygon id="Fill-73" fill="#1A2B63" points="252 281 329 281 329 277 252 277"></polygon>
                <polygon id="Fill-74" fill="#1F387F" points="317 277 252.513635 277 246 234 310.485835 234"></polygon>
                <polygon id="Fill-75" fill="#EEFAFF" points="313 274 255.779662 274 250 236 307.220338 236"></polygon>
                <polygon id="Fill-76" fill="#FDCDD3" points="370.855192 389.171467 361.774077 392 343 309.214387 412 305 378.611779 317.331686 385.990383 386.909062 378.801299 387.097947 369.341673 312.994708 350.737583 311.70882"></polygon>
                <polygon id="Fill-77" fill="#0F1935" points="387.997994 384 376.682938 385.507954 361 391.818903 361 396 393 395.277038"></polygon>
                <polygon id="Fill-78" fill="#1A2B63" points="424 311.362008 381.52825 320.028558 386.837417 378.058429 376.598423 379 361 305.315663 419.448983 301"></polygon>
                <path d="M391.319482,204.147803 L395.41536,217.193499 C396.767089,221.499502 401.785082,223.345314 405.557559,220.924122 L413.837564,215.611603 C416.721218,213.760983 417.803976,210.037305 416.368754,206.903966 L410.457711,193.995037 C408.606085,189.951881 403.501958,188.723655 400.047068,191.489968 L393.582757,196.665721 C391.364399,198.442081 390.463422,201.420489 391.319482,204.147803" id="Fill-79" fill="#FDCDD3"></path>
                <path d="M388.74691,190.14641 C388.74691,190.14641 393.355503,194.63443 397.696403,191.610044 C402.036232,188.586186 407.445761,186.174067 412.248698,189.882502 C417.052706,193.590937 420.00107,200.805127 420,202.736934 C419.997323,209.812308 418.594615,214 418.594615,214 C418.594615,214 412.048464,211.579963 411.585892,207.072415 C411.122784,202.564866 407.997742,206.216825 406.145846,202.622398 C404.29395,199.027443 403.938455,198.349727 403.938455,198.349727 C403.938455,198.349727 403.657378,202.108833 395.323042,203.249971 C386.989241,204.391109 382.901578,194.539951 388.74691,190.14641" id="Fill-80" fill="#213244"></path>
                <polygon id="Fill-81" fill="#FDCDD3" points="405 233 414 233 414 211 405 211"></polygon>
                <path d="M397.857327,207.749498 C398.209306,208.84537 397.887745,209.845764 397.137851,209.984041 C396.388578,210.122318 395.494664,209.346742 395.142686,208.250401 C394.790707,207.155 395.112268,206.154606 395.861541,206.015858 C396.611435,205.878051 397.505349,206.653627 397.857327,207.749498" id="Fill-82" fill="#213244"></path>
                <path d="M411.265668,204.210802 C412.243041,205.540659 412.245121,207.419794 411.26983,208.408083 C410.294538,209.39586 408.711704,209.118913 407.734332,207.789569 C406.756959,206.459199 406.754879,204.580577 407.73017,203.592287 C408.705462,202.603998 410.288296,202.880945 411.265668,204.210802" id="Fill-83" fill="#FDCDD3"></path>
                <path d="M396,214.476696 L393.068189,214.984714 C392.399799,215.100637 391.835589,214.53758 392.043946,213.961371 L393.475583,210 L396,214.476696 Z" id="Fill-84" fill="#FDCDD3"></path>
                <path d="M387,235.33945 L395.64456,227.321453 C398.322382,225.691034 401.419572,224.888015 404.549507,225.012576 L417.622773,225.53361 C420.712568,225.656581 423.682469,226.767556 426.098847,228.703812 C431.418576,232.965377 434.350448,239.549071 433.966469,246.369165 L430.982308,299.32282 C430.982308,299.32282 401.075205,302.091247 391.800538,296.433012 C398.046677,274.248492 397.479423,248.984409 395.018678,242.525805 C392.557406,236.067202 387,235.33945 387,235.33945" id="Fill-85" fill="#1153C1"></path>
                <polygon id="Fill-86" fill="#1F387F" points="394.569514 294 338 303.733212 357.042431 383 369.653288 380.704015 355.670369 314.477763 426.469298 314.390029 431 299.145495"></polygon>
                <polygon id="Fill-87" fill="#C2E0FF" points="463.925492 233.500709 467 234 415.158098 233.629787 411 233"></polygon>
                <polygon id="Fill-88" fill="#D0E5FF" points="415.535049 233 407 314 454.571244 314 467 233.744254"></polygon>
                <polygon id="Fill-89" fill="#C2E0FF" points="371 314 374.07301 324 444.243146 324 455 314"></polygon>
                <polygon id="Fill-90" fill="#A6C8E6" points="403 314 407.771186 314 416 232.748684 411.800994 232"></polygon>
                <polygon id="Fill-91" fill="#D0E5FF" points="407 385 416 385 416 324 407 324"></polygon>
                <polygon id="Fill-92" fill="#C2E0FF" points="385 391 438 391 438 385 385 385"></polygon>
                <path d="M381,394.999727 C381,397.20898 382.790898,399 384.999453,399 C387.208555,399 389,397.20898 389,394.999727 C389,392.790474 387.208555,391 384.999453,391 C382.790898,391 381,392.790474 381,394.999727" id="Fill-93" fill="#C2E0FF"></path>
                <path d="M407,394.999727 C407,397.20898 408.790474,399 410.999727,399 C413.20898,399 415,397.20898 415,394.999727 C415,392.790474 413.20898,391 410.999727,391 C408.790474,391 407,392.790474 407,394.999727" id="Fill-94" fill="#A6C8E6"></path>
                <path d="M434,394.999727 C434,397.20898 435.790898,399 437.999453,399 C440.208555,399 442,397.20898 442,394.999727 C442,392.790474 440.208555,391 437.999453,391 C435.790898,391 434,392.790474 434,394.999727" id="Fill-95" fill="#C2E0FF"></path>
                <polygon id="Fill-96" fill="#1A2B63" points="371.998434 387 360.683194 388.507954 345 394.818903 345 399 377 398.277038"></polygon>
                <polygon id="Fill-97" fill="#FDCDD3" points="331 275.948211 323.350613 272 309 274.872505 309.725688 276.499484 320.258228 277.407433 323.464498 281 331 280.175671"></polygon>
                <path d="M385.570538,236.036496 L366.139425,268.5768 L329,274.501752 L329,281 L374.434129,281 L396.452341,249.111921 L400,231.522653 L395.423394,231.05335 C391.465418,230.646976 387.630537,232.586585 385.570538,236.036496" id="Fill-98" fill="#1153C1"></path>
                <path d="M212.614711,268 L237.385289,268 C238.277043,268 239,267.261831 239,266.350644 L239,253.649898 C239,252.738712 238.277043,252 237.385289,252 L212.614711,252 C211.722957,252 211,252.738712 211,253.649898 L211,266.350644 C211,267.261831 211.722957,268 212.614711,268" id="Fill-99" fill="#A6C8E6"></path>
                <path d="M215,264.460193 L215,271.539167 C215,271.949048 215.458344,272.153989 215.726135,271.864435 L220.875134,266.297518 C221.106339,266.047523 221.001154,265.620059 220.685598,265.527753 L215.537106,264.016246 C215.266266,263.937127 215,264.156903 215,264.460193" id="Fill-100" fill="#A6C8E6"></path>
                <path d="M228,260 C228,261.10413 228.895418,262 230.000291,262 C231.104582,262 232,261.10413 232,260 C232,258.89587 231.104582,258 230.000291,258 C228.895418,258 228,258.89587 228,260" id="Fill-101" fill="#EEFAFF"></path>
                <path d="M223,260 C223,261.10413 223.895418,262 225.000291,262 C226.104582,262 227,261.10413 227,260 C227,258.89587 226.104582,258 225.000291,258 C223.895418,258 223,258.89587 223,260" id="Fill-102" fill="#EEFAFF"></path>
                <path d="M217,260 C217,261.10413 217.895418,262 219.000291,262 C220.104582,262 221,261.10413 221,260 C221,258.89587 220.104582,258 219.000291,258 C217.895418,258 217,258.89587 217,260" id="Fill-103" fill="#EEFAFF"></path>
                <path d="M351.69388,220 L316.30612,220 C315.032796,220 314,218.984272 314,217.731472 L314,200.268009 C314,199.015209 315.032796,198 316.30612,198 L351.69388,198 C352.967204,198 354,199.015209 354,200.268009 L354,217.731472 C354,218.984272 352.967204,220 351.69388,220" id="Fill-104" fill="#1673F9"></path>
                <path d="M349,214.632948 L349,224.36584 C349,224.929708 348.312315,225.211904 347.910415,224.813571 L340.187349,217.158528 C339.84059,216.814848 339.998063,216.228383 340.471542,216.100685 L348.194078,214.02231 C348.60022,213.91353 349,214.216222 349,214.632948" id="Fill-105" fill="#1673F9"></path>
                <path d="M326.325945,204 L320.674569,204 C320.302092,204 320,203.776 320,203.50019 C320,203.223619 320.302092,203 320.674569,203 L326.325945,203 C326.698422,203 327,203.223619 327,203.50019 C327,203.776 326.698422,204 326.325945,204" id="Fill-106" fill="#C2E0FF"></path>
                <path d="M338.294003,204 L328.706536,204 C328.316407,204 328,203.776 328,203.50019 C328,203.223619 328.316407,203 328.706536,203 L338.294003,203 C338.684131,203 339,203.223619 339,203.50019 C339,203.776 338.684131,204 338.294003,204" id="Fill-107" fill="#C2E0FF"></path>
                <path d="M348.367793,204 L340.631681,204 C340.282913,204 340,203.795429 340,203.542857 L340,203.457143 C340,203.204571 340.282913,203 340.631681,203 L348.367793,203 C348.717087,203 349,203.204571 349,203.457143 L349,203.542857 C349,203.795429 348.717087,204 348.367793,204" id="Fill-108" fill="#C2E0FF"></path>
                <path d="M326.325945,214 L320.674569,214 C320.302092,214 320,213.776 320,213.50019 C320,213.223619 320.302092,213 320.674569,213 L326.325945,213 C326.698422,213 327,213.223619 327,213.50019 C327,213.776 326.698422,214 326.325945,214" id="Fill-109" fill="#C2E0FF"></path>
                <path d="M338.294003,214 L328.706536,214 C328.316407,214 328,213.776 328,213.50019 C328,213.223619 328.316407,213 328.706536,213 L338.294003,213 C338.684131,213 339,213.223619 339,213.50019 C339,213.776 338.684131,214 338.294003,214" id="Fill-110" fill="#C2E0FF"></path>
                <path d="M333.283172,209 L320.716828,209 C320.320715,209 320,208.776 320,208.50019 C320,208.223619 320.320715,208 320.716828,208 L333.283172,208 C333.679285,208 334,208.223619 334,208.50019 C334,208.776 333.679285,209 333.283172,209" id="Fill-111" fill="#C2E0FF"></path>
                <path d="M340.261855,209 L334.738708,209 C334.330815,209 334,208.776 334,208.50019 C334,208.223619 334.330815,208 334.738708,208 L340.261855,208 C340.669748,208 341,208.223619 341,208.50019 C341,208.776 340.669748,209 340.261855,209" id="Fill-112" fill="#C2E0FF"></path>
                <path d="M348.357945,209 L342.64152,209 C342.287319,209 342,208.795429 342,208.542857 L342,208.457143 C342,208.204571 342.287319,208 342.64152,208 L348.357945,208 C348.712681,208 349,208.204571 349,208.457143 L349,208.542857 C349,208.795429 348.712681,209 348.357945,209" id="Fill-113" fill="#C2E0FF"></path>
                <polygon id="Fill-114" fill="#C2E0FF" points="101 289 110 289 110 264 101 264"></polygon>
                <polygon id="Fill-115" fill="#1153C1" points="101 332 110 332 110 289 101 289"></polygon>
                <polygon id="Fill-116" fill="#C2E0FF" points="115 300 124 300 124 264 115 264"></polygon>
                <polygon id="Fill-117" fill="#0C66BF" points="115 332 124 332 124 299 115 299"></polygon>
                <polygon id="Fill-118" fill="#C2E0FF" points="129 303 138 303 138 264 129 264"></polygon>
                <polygon id="Fill-119" fill="#1A2B63" points="129 332 138 332 138 302 129 302"></polygon>
                <polygon id="Fill-120" fill="#C2E0FF" points="143 291 152 291 152 264 143 264"></polygon>
                <polygon id="Fill-121" fill="#1153C1" points="143 332 152 332 152 291 143 291"></polygon>
                <polygon id="Fill-122" fill="#C2E0FF" points="87 302 96 302 96 264 87 264"></polygon>
                <polygon id="Fill-123" fill="#1A2B63" points="87 332 96 332 96 301 87 301"></polygon>
                <path d="M381,127.5 C381,139.926441 370.926322,150 358.500265,150 C346.073147,150 336,139.926441 336,127.5 C336,115.073559 346.073147,105 358.500265,105 C370.926322,105 381,115.073559 381,127.5" id="Fill-124" fill="#C2E0FF"></path>
                <path d="M338,117.787251 L358,127 L358,105 C349.130308,105 341.490803,110.239699 338,117.787251" id="Fill-125" fill="#1153C1"></path>
                <path d="M338.008292,118 C336.722985,120.788151 336,123.887992 336,127.157376 C336,128.469264 336.121793,129.75169 336.343094,131 L358,127.157376 L338.008292,118 Z" id="Fill-126" fill="#1F387F"></path>
            </g>
        </g>
    </g>
</svg>