<?xml version="1.0" encoding="UTF-8"?>
<svg width="16px" height="20px" viewBox="0 0 16 20" version="1.1" xmlns="http://www.w3.org/2000/svg" xmlns:xlink="http://www.w3.org/1999/xlink">
    <!-- Generator: Sketch 58 (84663) - https://sketch.com -->
    <title>126479</title>
    <desc>Created with Sketch.</desc>
    <g id="Page-1" stroke="none" stroke-width="1" fill="none" fill-rule="evenodd">
        <g id="Login" transform="translate(-924.000000, -536.000000)" fill="#C6C6C6" fill-rule="nonzero" stroke-width="0.5">
            <g id="126479" transform="translate(925.000000, 537.000000)">
                <path d="M12.9567493,8.11460055 L12.6829201,8.11460055 L12.6829201,5.68870523 C12.6829201,2.55316804 10.1336088,0 6.99421488,0 C3.85867769,0 1.30550964,2.54931129 1.30550964,5.68870523 C1.30550964,5.97796143 1.5369146,6.20936639 1.8261708,6.20936639 C2.115427,6.20936639 2.34683196,5.97796143 2.34683196,5.68870523 C2.34683196,3.12782369 4.42947658,1.04132231 6.99421488,1.04132231 C9.55509642,1.04132231 11.6415978,3.12396694 11.6415978,5.68870523 L11.6415978,8.11460055 L1.03553719,8.11460055 C0.480165289,8.11460055 0.0289256198,8.56584022 0.0289256198,9.12121212 L0.0289256198,15.6044077 C0.0289256198,17.2666667 1.38264463,18.6203857 3.04490358,18.6203857 L10.9473829,18.6203857 C12.6096419,18.6203857 13.9633609,17.2666667 13.9633609,15.6044077 L13.9633609,9.12121212 C13.9633609,8.56584022 13.5121212,8.11460055 12.9567493,8.11460055 Z M10.9473829,17.5790634 L3.04876033,17.5790634 C1.96115702,17.5790634 1.07410468,16.6958678 1.07410468,15.6044077 L1.07410468,9.15592287 L12.9220386,9.15592287 L12.9220386,15.6044077 C12.9220386,16.692011 12.038843,17.5790634 10.9473829,17.5790634 Z" id="Shape" stroke="#C6C6C6"></path>
                <path d="M6.99807163,15.3922865 C8.07410468,15.3922865 8.94573003,14.5168044 8.94573003,13.4446281 C8.94573003,12.368595 8.07024793,11.4969697 6.99807163,11.4969697 C5.92203857,11.4969697 5.05041322,12.3724518 5.05041322,13.4446281 C5.05041322,14.5168044 5.92203857,15.3922865 6.99807163,15.3922865 Z M6.99807163,12.5344353 C7.49944904,12.5344353 7.90440771,12.9432507 7.90440771,13.4407713 C7.90440771,13.938292 7.49944904,14.3509642 6.99807163,14.3509642 C6.49669421,14.3509642 6.09173554,13.9421488 6.09173554,13.4446281 C6.09173554,12.9471074 6.49669421,12.5344353 6.99807163,12.5344353 Z" id="Shape" stroke="#DCDFE0"></path>
            </g>
        </g>
    </g>
</svg>