<?xml version="1.0" encoding="UTF-8"?>
<svg width="18px" height="19px" viewBox="0 0 18 19" version="1.1" xmlns="http://www.w3.org/2000/svg" xmlns:xlink="http://www.w3.org/1999/xlink">
    <!-- Generator: Sketch 58 (84663) - https://sketch.com -->
    <title>search-2</title>
    <desc>Created with Sketch.</desc>
    <g id="Admin" stroke="none" stroke-width="1" fill="none" fill-rule="evenodd" opacity="0.300000012">
        <g id="Report" transform="translate(-809.000000, -105.000000)" fill="#003057" fill-rule="nonzero">
            <g id="search-2" transform="translate(809.000000, 105.000000)">
                <path d="M17.7255,16.6779643 L13.3675714,12.1455 C14.4880714,10.8135 15.102,9.13757143 15.102,7.39285714 C15.102,3.3165 11.7855,0 7.70914286,0 C3.63278571,0 0.316285714,3.3165 0.316285714,7.39285714 C0.316285714,11.4692143 3.63278571,14.7857143 7.70914286,14.7857143 C9.23946429,14.7857143 10.6977857,14.3241429 11.9446071,13.4479286 L16.3356429,18.0147857 C16.5191786,18.2053929 16.7660357,18.3105 17.0305714,18.3105 C17.2809643,18.3105 17.5185,18.2150357 17.6988214,18.0414643 C18.0819643,17.6727857 18.0941786,17.0614286 17.7255,16.6779643 Z M7.70914286,1.92857143 C10.7222143,1.92857143 13.1734286,4.37978571 13.1734286,7.39285714 C13.1734286,10.4059286 10.7222143,12.8571429 7.70914286,12.8571429 C4.69607143,12.8571429 2.24485714,10.4059286 2.24485714,7.39285714 C2.24485714,4.37978571 4.69607143,1.92857143 7.70914286,1.92857143 Z" id="Shape"></path>
            </g>
        </g>
    </g>
</svg>