<?xml version="1.0" encoding="UTF-8"?>
<svg width="14px" height="15px" viewBox="0 0 14 15" version="1.1" xmlns="http://www.w3.org/2000/svg" xmlns:xlink="http://www.w3.org/1999/xlink">
    <!-- Generator: Sketch 58 (84663) - https://sketch.com -->
    <title>User Management Dark</title>
    <desc>Created with Sketch.</desc>
    <g id="User-Management-Dark" stroke="none" stroke-width="1" fill="none" fill-rule="evenodd">
        <g id="16612" fill="#4E738A" fill-rule="nonzero">
            <path d="M6.97157895,8.82314715 C4.93852632,8.82314715 3.29131579,6.80816327 3.29131579,4.32438238 C3.29131579,1.84087003 4.93852632,0 6.97157895,0 C9.00494737,0 10.6535263,1.84087003 10.6535263,4.32438238 C10.6535263,6.80816327 9.00489474,8.82314715 6.97157895,8.82314715 Z M1.24678947,14.9048335 C1.24678947,14.9048335 0.466157895,14.9574114 0.122315789,14.4739527 C-0.0634736842,14.212782 0.0659473684,13.6835124 0.193,13.3881847 L0.504157895,12.6646079 C0.504157895,12.6646079 1.36468421,10.7007519 2.34426316,9.56272825 C2.946,8.86487648 3.66168421,9.02379162 4.12457895,9.25075188 C4.40968421,9.39038668 4.73205263,9.79726101 4.96763158,10.0128894 C5.29226316,10.3099893 5.86536842,10.6476369 6.80231579,10.6666488 L7.37715789,10.6666488 C8.31352632,10.6476369 8.88663158,10.3099893 9.211,10.0128894 C9.44631579,9.79731472 9.75978947,9.37781955 10.0423158,9.23356606 C10.4671579,9.01654135 11.1137895,8.883029 11.6997895,9.56278195 C12.6796842,10.7008593 13.4557368,12.7003222 13.4557368,12.7003222 L13.7746316,13.4098818 C13.9065789,13.7031686 14.0417368,14.2298067 13.8611053,14.4944683 C13.5387895,14.9676692 12.8151053,14.9048872 12.8151053,14.9048872 C12.8151053,14.9048872 1.24678947,14.9048335 1.24678947,14.9048335 Z" id="Shape"></path>
        </g>
    </g>
</svg>